<svg width="24" height="24" viewBox="0 0 24 24" fill="none" xmlns="http://www.w3.org/2000/svg">
<path d="M17.868 20.173C18.0219 20.173 18.1743 20.1427 18.3165 20.0838C18.4587 20.0249 18.5879 19.9386 18.6967 19.8298C18.8055 19.7209 18.8919 19.5917 18.9508 19.4495C19.0097 19.3073 19.04 19.1549 19.04 19.001V8.979C19.0399 8.67286 18.92 8.37893 18.706 8.16003L14.82 4.17999C14.7106 4.0684 14.5801 3.97974 14.436 3.91913C14.292 3.85852 14.1373 3.82722 13.981 3.82703H6.121C5.96709 3.82703 5.81468 3.85736 5.67249 3.91626C5.53029 3.97516 5.4011 4.06146 5.29227 4.17029C5.18344 4.27912 5.09711 4.40834 5.03821 4.55054C4.97931 4.69273 4.94901 4.84511 4.94901 4.99902V18.999C4.94901 19.1529 4.97931 19.3053 5.03821 19.4475C5.09711 19.5897 5.18344 19.7189 5.29227 19.8278C5.4011 19.9366 5.53029 20.0229 5.67249 20.0818C5.81468 20.1407 5.96709 20.171 6.121 20.171L17.868 20.173Z" fill="black" stroke="black" stroke-linecap="round" stroke-linejoin="round"/>
<path d="M7.63901 12.303H15.473" stroke="white" stroke-miterlimit="10" stroke-linecap="round"/>
<path d="M7.63901 15.4541H15.473" stroke="white" stroke-miterlimit="10" stroke-linecap="round"/>
<path d="M7.63901 9.1521H10.585" stroke="white" stroke-miterlimit="10" stroke-linecap="round"/>
</svg>
