<svg width="24" height="24" viewBox="0 0 24 24" fill="none" xmlns="http://www.w3.org/2000/svg">
<path d="M10.826 3.75494C11.1683 3.51008 11.5786 3.37842 11.9995 3.37842C12.4204 3.37842 12.8307 3.51008 13.173 3.75494L18.636 7.65997C18.897 7.84689 19.1098 8.09335 19.2566 8.37891C19.4034 8.66446 19.4799 8.98087 19.48 9.30194V14.702C19.4798 15.0229 19.4031 15.3391 19.2563 15.6245C19.1096 15.9098 18.8969 16.1561 18.636 16.343L13.173 20.249C12.8307 20.4938 12.4204 20.6255 11.9995 20.6255C11.5786 20.6255 11.1683 20.4938 10.826 20.249L5.36401 16.343C5.10292 16.1563 4.89014 15.91 4.74335 15.6246C4.59655 15.3392 4.51999 15.0229 4.52002 14.702V9.30194C4.51984 8.98082 4.5963 8.66432 4.7431 8.37872C4.8899 8.09313 5.10278 7.84672 5.36401 7.65997L10.826 3.75494Z" fill="black" stroke="black" stroke-linecap="round" stroke-linejoin="round"/>
<path d="M12.178 17.4529V12.467L16.641 10.2369" stroke="white" stroke-linecap="round" stroke-linejoin="round"/>
<path d="M12.177 12.4669L7.539 10.2369" stroke="white" stroke-linecap="round" stroke-linejoin="round"/>
</svg>
