<svg width="24" height="24" viewBox="0 0 24 24" fill="none" xmlns="http://www.w3.org/2000/svg">
<path d="M15.767 20.02C14.5802 19.872 13.4475 19.4368 12.467 18.752C11.0966 17.8844 9.82274 16.873 8.66699 15.735H8.66202L8.28101 15.353C7.14532 14.1923 6.1363 12.9141 5.271 11.54C4.58764 10.5557 4.15355 9.42017 4.00601 8.23102C4.11048 7.22871 4.50296 6.27809 5.13602 5.49402C5.40102 5.14002 6.32701 3.98401 7.11401 3.98401C7.43701 3.98401 7.785 4.19602 8.242 4.67102C8.62297 5.08009 8.97293 5.51697 9.289 5.97803C9.61455 6.44026 9.91178 6.92176 10.179 7.41998C10.4119 7.77667 10.5556 8.18417 10.598 8.60803C10.5915 8.78636 10.54 8.96008 10.4482 9.1131C10.3564 9.26611 10.2273 9.39342 10.073 9.48303C9.82876 9.6383 9.57025 9.76984 9.30099 9.87598C9.10039 9.95451 8.90756 10.0516 8.72501 10.166C8.87958 10.6034 9.10087 11.0143 9.38101 11.384C10.2266 12.6771 11.3295 13.7821 12.621 14.63C12.9898 14.9104 13.3996 15.1324 13.836 15.288C13.9498 15.1046 14.0466 14.9111 14.125 14.71C14.2307 14.4403 14.3623 14.1814 14.518 13.937C14.6066 13.7823 14.7331 13.6528 14.8857 13.5605C15.0383 13.4683 15.2119 13.4165 15.39 13.41C15.8133 13.4529 16.2201 13.597 16.576 13.83C17.0726 14.0986 17.5527 14.3965 18.014 14.722C18.4726 15.0391 18.9071 15.3898 19.314 15.771C19.789 16.23 20 16.578 20 16.902C20 17.691 18.847 18.619 18.493 18.885C17.7116 19.5184 16.7633 19.9117 15.763 20.017L15.767 20.02Z" fill="black"/>
<path d="M12.379 9.53012C12.664 9.47574 12.957 9.47801 13.2411 9.53689C13.5253 9.59577 13.795 9.71009 14.035 9.87326C14.275 10.0364 14.4805 10.2452 14.6397 10.4878C14.7989 10.7304 14.9088 11.002 14.963 11.2871" stroke="black" stroke-linecap="round" stroke-linejoin="round"/>
<path d="M12.293 7.28395C12.8101 7.16804 13.3452 7.15701 13.8667 7.25154C14.3882 7.34607 14.8853 7.54425 15.3289 7.8343C15.7724 8.12436 16.1532 8.50043 16.4489 8.94026C16.7445 9.38009 16.9489 9.87475 17.05 10.395" stroke="black" stroke-linecap="round" stroke-linejoin="round"/>
<path d="M12.005 4.96297C12.005 4.96297 18.434 3.95498 19.817 10.176" stroke="black" stroke-linecap="round" stroke-linejoin="round"/>
</svg>
