<svg width="24" height="24" viewBox="0 0 24 24" fill="none" xmlns="http://www.w3.org/2000/svg">
<path d="M11.56 13.77C11.56 13.77 7.70001 11.66 6.44001 9.41C6.1117 8.85976 5.93889 8.23074 5.94001 7.59C5.94531 6.94467 6.12399 6.31263 6.45734 5.76005C6.79069 5.20746 7.26645 4.75463 7.83483 4.44898C8.4032 4.14332 9.04329 3.99607 9.6881 4.02264C10.3329 4.04921 10.9587 4.24862 11.5 4.6C12.0938 4.20897 12.7891 4.00039 13.5 4C14.4521 4 15.3653 4.37823 16.0385 5.05149C16.7118 5.72474 17.09 6.63787 17.09 7.59C17.0933 7.92775 17.0495 8.26431 16.96 8.59C16.39 11.12 11.56 13.77 11.56 13.77Z" fill="black" stroke="black" stroke-linecap="round" stroke-linejoin="round"/>
<path d="M19.07 11.25C19.07 11.25 18.8 16.62 13.86 16.81V20.37" stroke="black" stroke-linecap="round" stroke-linejoin="round"/>
<path d="M4 11.25C4 11.25 4.27 16.62 9.21 16.81V20.37" stroke="black" stroke-linecap="round" stroke-linejoin="round"/>
</svg>
