<svg width="24" height="24" viewBox="0 0 24 24" fill="none" xmlns="http://www.w3.org/2000/svg">
<path d="M17.261 20.233H6.742C6.45721 20.2331 6.1752 20.1771 5.91205 20.0682C5.6489 19.9593 5.40977 19.7997 5.20834 19.5983C5.00692 19.397 4.84714 19.1579 4.73813 18.8948C4.62911 18.6317 4.573 18.3497 4.573 18.0649V10.274C4.57293 9.95429 4.64356 9.63853 4.77979 9.3493C4.91601 9.06008 5.11447 8.80451 5.36099 8.60095L10.621 4.26196C11.0095 3.94156 11.4974 3.76636 12.001 3.76636C12.5046 3.76636 12.9925 3.94156 13.381 4.26196L18.64 8.60095C18.8868 8.80432 19.0856 9.05981 19.222 9.34906C19.3584 9.63831 19.4291 9.95418 19.429 10.274V18.066C19.4288 18.6408 19.2002 19.192 18.7937 19.5983C18.3871 20.0047 17.8358 20.233 17.261 20.233Z" stroke="#818181" stroke-linecap="round" stroke-linejoin="round"/>
<path d="M8.93802 16.912V14.397C8.93789 13.9947 9.01701 13.5964 9.1709 13.2247C9.32478 12.853 9.55042 12.5152 9.83487 12.2308C10.1193 11.9463 10.457 11.7207 10.8287 11.5668C11.2004 11.413 11.5987 11.3339 12.001 11.334C12.4033 11.3339 12.8017 11.413 13.1733 11.5668C13.545 11.7207 13.8827 11.9463 14.1672 12.2308C14.4516 12.5152 14.6772 12.853 14.8311 13.2247C14.985 13.5964 15.0642 13.9947 15.064 14.397V16.912" stroke="#818181" stroke-linecap="round" stroke-linejoin="round"/>
</svg>
